<?xml version="1.0" encoding="utf-8"?>
<!-- Generator: Adobe Illustrator 18.1.1, SVG Export Plug-In . SVG Version: 6.00 Build 0)  -->
<svg version="1.1" id="Layer_1" xmlns="http://www.w3.org/2000/svg" xmlns:xlink="http://www.w3.org/1999/xlink" x="0px" y="0px"
	 viewBox="-293 385 24 24" enable-background="new -293 385 24 24" xml:space="preserve">
<g>
	<path fill="none" stroke="#FFFFFF" stroke-miterlimit="10" d="M-285,399.5c0.1-1.7,1.5-3.3,3.6-4.1c1.3-0.5,2.7-0.7,4-1.1
		c5.2-1.5,8.5-5.9,7.4-9.8"/>
	
		<text transform="matrix(0.4143 -0.8042 0.9342 0.3566 -288.4095 409.192)" fill="#FFFFFF" font-family="'MyriadPro-Regular'" font-size="4.3469">AAAA</text>
	<g>
		<path fill="#FFFFFF" d="M-272.5,393.1c1.1,2.1-0.9,3.8-3.4,2.8c-2.5,0.9-4.5-0.8-3.4-2.8c-1.1-2.1,0.9-3.8,3.4-2.8
			C-273.4,389.3-271.4,391-272.5,393.1z"/>
		<path fill="none" stroke="#FFFFFF" stroke-width="3" stroke-miterlimit="10" d="M-272.5,393.1c1.1,2.1-0.9,3.8-3.4,2.8
			c-2.5,0.9-4.5-0.8-3.4-2.8c-1.1-2.1,0.9-3.8,3.4-2.8C-273.4,389.3-271.4,391-272.5,393.1z"/>
	</g>
</g>
</svg>
