<?xml version="1.0" encoding="utf-8"?>
<!-- Generator: Adobe Illustrator 18.1.1, SVG Export Plug-In . SVG Version: 6.00 Build 0)  -->
<svg version="1.1" id="Layer_1" xmlns="http://www.w3.org/2000/svg" xmlns:xlink="http://www.w3.org/1999/xlink" x="0px" y="0px"
	 viewBox="-293 385 24 24" enable-background="new -293 385 24 24" xml:space="preserve">
<g>
	<path fill="#FFFFFF" d="M-271.2,395l-9.3,7.4c-2.7,2.2-6.6,1.7-8.6-1l0,0c-1.6-2.2-1.2-5.4,1-7.2l9.3-7.4c2.7-2.2,6.6-1.7,8.6,1
		l0,0C-268.6,390-269,393.3-271.2,395z"/>
	<g>
		<path fill="#FFFFFF" d="M-291,405.8c-0.8,0.4-1.2,1.2-1.3,2.3l-0.9,1c0.5-0.3,1.2,0,1.8-0.2c0.7-0.2,1-0.9,0.9-2
			c0-0.4-0.1-0.8-0.2-1.2C-290.8,405.7-290.9,405.8-291,405.8z M-290.6,406.5c0,0.2,0.1,0.5,0,0.7c0,0.1,0,0.1,0,0.2c0,0,0,0,0,0.1
			c0,0,0,0.1,0,0.1c0,0,0,0,0,0.1c0,0.5-0.3,0.9-0.5,1.1c0,0,0,0.1-0.1,0.1c-0.1,0-0.2,0.1-0.3,0.1c0,0-0.1,0-0.1,0
			c-0.2,0.1-0.5,0.2-0.8,0.1c-0.1,0.1-0.3-0.1-0.2-0.2c0.1-0.1,0.1-0.2,0.2-0.2c0,0,0-0.1,0.1-0.1c0,0,0,0,0-0.1c0,0,0,0,0,0
			c0.1-0.1,0.1-0.2,0.2-0.3c0-0.1,0-0.1,0-0.1c0,0,0,0,0,0c0,0,0,0,0,0c0-0.1,0-0.2,0-0.3c0.1-0.4,0.3-0.7,0.5-1
			c0-0.1,0.1-0.1,0.1-0.1c0.1-0.2,0.2-0.3,0.4-0.4c0,0,0,0,0.1,0c0,0,0,0,0,0c0.1-0.1,0.4,0.1,0.4,0.3c0,0,0,0,0,0
			C-290.6,406.4-290.6,406.5-290.6,406.5z"/>
		<path fill="#FFFFFF" d="M-288.4,401.7c-0.3,0.4-0.9,0.4-1.5,0.3c-0.6-0.1-1.2-0.2-1.6,0.1s-0.5,1.1,0,2.2c0.1,0.3,0.3,0.6,0.5,0.9
			c0.1,0.2,0.2,0.4,0.2,0.6c0.4-0.1,0.8-0.2,1.1-0.4C-288.5,404.9-288,403.4-288.4,401.7L-288.4,401.7z M-288.4,402.4
			c0.1,0.7-0.2,1.3-0.5,1.7c-0.2,0.3-0.4,0.7-0.7,0.9c-0.1,0.1-0.2,0.1-0.3,0.1c0,0.1-0.1,0.2-0.2,0.2c0,0,0,0-0.1,0
			c-0.1,0.1-0.3,0.2-0.4,0.2c-0.1,0-0.1-0.1-0.2-0.1c-0.1-0.3-0.1-0.6-0.3-0.9c0,0,0-0.1,0-0.1c-0.2-0.4-0.2-0.7-0.1-1
			c0,0,0,0,0-0.1c0-0.4,0.3-0.8,0.5-1c0.3-0.2,0.8-0.2,1.2-0.1c0,0,0,0,0.1,0c0,0,0.1,0,0.1,0c0,0,0,0,0,0c0.2,0,0.4-0.1,0.6-0.1
			c0,0,0.1,0,0.1,0.1c0,0,0,0,0,0c0,0,0,0,0,0C-288.5,402.3-288.4,402.3-288.4,402.4z"/>
	</g>
</g>
</svg>
