<?xml version="1.0" encoding="utf-8"?>
<!-- Generator: Adobe Illustrator 18.1.1, SVG Export Plug-In . SVG Version: 6.00 Build 0)  -->
<svg version="1.1" id="Layer_1" xmlns="http://www.w3.org/2000/svg" xmlns:xlink="http://www.w3.org/1999/xlink" x="0px" y="0px"
	 viewBox="-293 385 24 24" enable-background="new -293 385 24 24" xml:space="preserve">
<path fill="#FFFFFF" d="M-281.5,409c-3.5-0.1-6.5-0.9-9-3.2c-2.2-2-3-4.9-2.2-7.5c0.6-2,1.8-3.3,3.3-4.3c3.5-2.4,7.3-2.8,11.2-1.8
	c0.2,0,0.3,0.1,0.5,0.1c0.9,0.3,1.2,0,1-1.1c-0.4-2.5,0.7-5,2.6-5.9c1.9-0.8,4,0.4,4.7,2.8c0.8,2.5-0.2,5.4-2.2,6.4
	c-1.2,0.6-1.2,0.6-0.4,1.9c1.7,2.5,1.7,5.4,0,7.9c-1.7,2.5-4,3.7-6.6,4.3C-279.7,408.8-280.8,408.9-281.5,409z"/>
</svg>
