<?xml version="1.0" encoding="UTF-8" standalone="no"?>
<!-- Created with Inkscape (http://www.inkscape.org/) -->
<svg xmlns:dc="http://purl.org/dc/elements/1.1/" xmlns:cc="http://creativecommons.org/ns#" xmlns:rdf="http://www.w3.org/1999/02/22-rdf-syntax-ns#" xmlns:svg="http://www.w3.org/2000/svg" xmlns="http://www.w3.org/2000/svg" xmlns:sodipodi="http://sodipodi.sourceforge.net/DTD/sodipodi-0.dtd" xmlns:inkscape="http://www.inkscape.org/namespaces/inkscape" width="200.4308" height="231.37611" id="svg6530" version="1.1" inkscape:version="0.48.1 " sodipodi:docname="GS_math.svg">
  <defs id="defs6532">
    <filter color-interpolation-filters="sRGB" inkscape:collect="always" id="filter3900">
      <feGaussianBlur inkscape:collect="always" stdDeviation="12.868029" id="feGaussianBlur3902"/>
    </filter>
  </defs>
  <sodipodi:namedview id="base" pagecolor="#ffffff" bordercolor="#666666" borderopacity="1.0" inkscape:pageopacity="0.0" inkscape:pageshadow="2" inkscape:zoom="1.6068182" inkscape:cx="44.625177" inkscape:cy="114.28571" inkscape:document-units="px" inkscape:current-layer="layer1" showgrid="false" fit-margin-top="0" fit-margin-left="0" fit-margin-right="0" fit-margin-bottom="0" inkscape:window-width="1280" inkscape:window-height="748" inkscape:window-x="-4" inkscape:window-y="-4" inkscape:window-maximized="1"/>
  <g inkscape:label="Layer 1" inkscape:groupmode="layer" id="layer1" transform="translate(-51.592354,-20.95983)">
    <g id="g3035">
      <path style="fill:#1c241f;fill-opacity:1;stroke:none;filter:url(#filter3900)" d="m 567.88189,-922.36329 c -0.67373,0 -1.21875,0.0147 -1.21875,0.0312 l 0,163.90625 0,7.3125 0,414.25 c 0,0.0409 0.54502,0.0937 1.21875,0.0937 l 497.56251,0 c 0.6737,0 1.2187,-0.0529 1.2187,-0.0937 l 0,-414.25 0,-7.3125 0,-163.90625 c 0,-0.0166 -0.545,-0.0312 -1.2187,-0.0312 l -497.56251,0 z" id="path4837" inkscape:connector-curvature="0" transform="matrix(0.35678668,0,0,0.35741481,-139.56677,361.66427)"/>
      <path id="rect4839" d="m 64.979654,63.537418 167.903886,0 c 0.22737,0 0.4104,0.0111 0.4104,0.02487 l 0,142.259002 c 0,0.0138 -0.18303,0.0249 -0.4104,0.0249 l -167.903886,0 c -0.227373,0 -0.410372,-0.0111 -0.410372,-0.0249 l 0,-142.259002 c 0,-0.01377 0.182999,-0.02487 0.410372,-0.02487 z" style="fill:#ffffff;fill-opacity:1;stroke:none" inkscape:connector-curvature="0"/>
      <path id="rect4841" d="m 64.979654,32.793507 167.903886,0 c 0.22737,0 0.4104,0.0027 0.4104,0.0058 l 0,33.240618 c 0,0.0034 -0.18303,0.0058 -0.4104,0.0058 l -167.903886,0 c -0.227373,0 -0.410372,-0.0027 -0.410372,-0.0058 l 0,-33.240618 c 0,-0.0034 0.182999,-0.0058 0.410372,-0.0058 z" style="fill:#2c89a0;fill-opacity:1;stroke:none" inkscape:connector-curvature="0"/>
      <path id="rect4849" d="m 64.675578,205.85188 167.903882,0 c 0.22734,0 0.41037,0.003 0.41037,0.006 l 0,33.24062 c 0,0.003 -0.18303,0.006 -0.41037,0.006 l -167.903882,0 c -0.227373,0 -0.410405,-0.003 -0.410405,-0.006 l 0,-33.24062 c 0,-0.003 0.183032,-0.006 0.410405,-0.006 z" style="fill:#2c89a0;fill-opacity:1;stroke:none" inkscape:connector-curvature="0"/>
      <g id="text4851" style="font-size:22.32485962px;font-style:normal;font-weight:normal;line-height:125%;letter-spacing:0px;word-spacing:0px;fill:#ffffff;fill-opacity:1;stroke:none;font-family:Sans" transform="matrix(0.3680121,0,0,0.30942472,-956.16426,362.99778)">
        <path id="path5417" style="font-size:80.36949158px;font-variant:normal;font-weight:bold;font-stretch:normal;fill:#ffffff;font-family:FreeSerif;-inkscape-font-specification:FreeSerif Bold" d="m 2852.4446,-430.15689 0,-39.62215 c 0,-1.82166 -0.4822,-3.10758 -1.4466,-3.85774 -0.9109,-0.75006 -2.6522,-1.25907 -5.2241,-1.52702 l 0,-2.00924 24.5127,0 c 9.2693,6e-5 16.5561,2.35756 21.8605,7.07252 5.3044,4.71505 7.9566,11.22497 7.9566,19.52978 0,8.30487 -2.6522,15.00232 -7.9566,20.09238 -5.3044,5.09007 -12.2965,7.6351 -20.9764,7.6351 l -25.3968,0 0,-2.00924 c 2.304,-0.0536 3.9917,-0.509 5.0633,-1.36628 1.0716,-0.85727 1.6074,-2.16997 1.6074,-3.93811 m 33.6748,-19.2083 c 0,-4.71498 -0.4822,-8.78703 -1.4466,-12.21617 -0.9645,-3.42905 -2.2504,-6.02766 -3.8578,-7.79584 -1.6074,-1.76808 -3.2951,-3.05399 -5.0632,-3.85773 -1.7146,-0.80365 -3.5631,-1.20549 -5.5455,-1.20555 -3.1612,6e-5 -4.7418,0.9377 -4.7418,2.81294 l 0,41.30992 c 0,1.82171 0.3214,3.05404 0.9644,3.69699 0.6429,0.64296 1.8753,0.96444 3.697,0.96444 10.6623,0 15.9935,-7.90299 15.9935,-23.709" inkscape:connector-curvature="0"/>
        <path id="path5419" style="font-size:80.36949158px;font-variant:normal;font-weight:bold;font-stretch:normal;fill:#ffffff;font-family:FreeSerif;-inkscape-font-specification:FreeSerif Bold" d="m 2922.8973,-460.85803 c 5.1972,4e-5 9.5103,1.87532 12.9395,5.62586 3.429,3.69703 5.1436,8.35845 5.1436,13.98429 0,5.5723 -1.7146,10.23373 -5.1436,13.9843 -3.4292,3.69699 -7.7423,5.54549 -12.9395,5.54549 -5.2509,0 -9.5908,-1.8485 -13.0199,-5.54549 -3.4291,-3.75057 -5.1436,-8.49237 -5.1436,-14.2254 0,-5.46511 1.7413,-10.04616 5.224,-13.74319 3.5362,-3.75054 7.8494,-5.62582 12.9395,-5.62586 m 0.08,2.49145 c -2.4646,4e-5 -4.1524,1.28595 -5.0632,3.85774 -0.9109,2.57185 -1.3663,7.39402 -1.3663,14.46651 0,5.89377 0.4554,10.0194 1.3663,12.3769 0.9644,2.30393 2.6253,3.45589 4.9829,3.45589 2.3575,0 3.9916,-1.20554 4.9025,-3.61663 0.9108,-2.46466 1.3663,-6.77782 1.3663,-12.93949 0,-6.59027 -0.4555,-11.17133 -1.3663,-13.74318 -0.9109,-2.57179 -2.5183,-3.8577 -4.8222,-3.85774" inkscape:connector-curvature="0"/>
        <path id="path5421" style="font-size:80.36949158px;font-variant:normal;font-weight:bold;font-stretch:normal;fill:#ffffff;font-family:FreeSerif;-inkscape-font-specification:FreeSerif Bold" d="m 2976.0215,-431.60354 1.4467,1.44665 c -2.3576,3.00047 -4.7419,5.17044 -7.1529,6.50993 -2.3576,1.28591 -5.0901,1.92887 -8.1977,1.92887 -4.9829,0 -9.1086,-1.79492 -12.3769,-5.38475 -3.2148,-3.58983 -4.8222,-8.1441 -4.8222,-13.66282 0,-5.78658 1.7949,-10.58195 5.3848,-14.38614 3.5898,-3.80412 8.1173,-5.70619 13.5824,-5.70623 3.5362,4e-5 6.4831,0.85731 8.8407,2.57182 2.411,1.66101 3.6165,3.75061 3.6166,6.26882 -10e-5,1.55384 -0.4823,2.78617 -1.4467,3.697 -0.9644,0.91088 -2.3039,1.3663 -4.0184,1.36628 -2.947,2e-5 -4.4472,-1.92884 -4.5007,-5.7866 -10e-5,-2.25032 -0.134,-3.6166 -0.4019,-4.09885 -0.5358,-1.01798 -1.527,-1.52698 -2.9737,-1.52702 -2.0896,4e-5 -3.7505,1.20558 -4.9829,3.61663 -1.1787,2.35753 -1.7681,5.5991 -1.7681,9.72471 0,5.46514 1.018,9.83188 3.054,13.10023 2.0896,3.21478 4.8758,4.82217 8.3585,4.82217 1.6609,0 3.0808,-0.32148 4.2596,-0.96444 1.2323,-0.69653 2.5985,-1.87528 4.0988,-3.53626" inkscape:connector-curvature="0"/>
        <path id="path5423" style="font-size:80.36949158px;font-variant:normal;font-weight:bold;font-stretch:normal;fill:#ffffff;font-family:FreeSerif;-inkscape-font-specification:FreeSerif Bold" d="m 3003.754,-421.79846 0,-5.22402 c -2.3575,2.03603 -4.3668,3.4291 -6.0277,4.17922 -1.661,0.75011 -3.5363,1.12517 -5.6259,1.12517 -3.3219,0 -5.9473,-0.99122 -7.8762,-2.97367 -1.8753,-1.98244 -2.8129,-4.74179 -2.8129,-8.27806 l 0,-20.25311 c 0,-1.66094 -0.2411,-2.78611 -0.7234,-3.37552 -0.4822,-0.58934 -1.5538,-1.04477 -3.2147,-1.36628 l 0,-1.92887 15.1094,0 0,27.24526 c 0,2.03604 0.3215,3.50947 0.9645,4.42032 0.6965,0.85728 1.8752,1.28592 3.5362,1.28591 2.036,1e-5 4.2328,-1.17874 6.5903,-3.53625 l 0,-22.74457 c 0,-1.71452 -0.3483,-2.89327 -1.0448,-3.53626 -0.643,-0.64292 -1.9557,-1.04477 -3.9381,-1.20554 l 0,-1.92887 16.1543,0 0,28.93302 c -10e-5,1.71456 0.2946,2.9201 0.884,3.61663 0.643,0.64296 1.8485,0.99122 3.6167,1.0448 l 0,1.8485 -4.9829,0.56258 c -4.4472,0.48222 -7.9834,1.17876 -10.6088,2.08961" inkscape:connector-curvature="0"/>
        <path id="path5425" style="font-size:80.36949158px;font-variant:normal;font-weight:bold;font-stretch:normal;fill:#ffffff;font-family:FreeSerif;-inkscape-font-specification:FreeSerif Bold" d="m 3043.768,-455.47328 c -1.4467,4e-5 -2.9469,0.6162 -4.5007,1.8485 -1.5003,1.23236 -2.2504,2.17001 -2.2504,2.81294 l 0,21.45865 c 0,1.55381 0.2679,2.6522 0.8037,3.29515 0.5358,0.64296 1.5002,1.07159 2.8933,1.28591 l 0,1.92887 -19.2887,0 0,-1.92887 c 1.7682,-0.32148 2.9469,-0.7769 3.5363,-1.36628 0.5894,-0.64295 0.8841,-1.79491 0.8841,-3.45589 l 0,-23.62863 c 0,-1.66094 -0.2947,-2.8129 -0.8841,-3.45589 -0.5894,-0.64292 -1.7681,-1.07156 -3.5363,-1.28591 l 0,-1.92887 15.3506,0 0,6.02771 c 2.9469,-4.66139 6.885,-6.9921 11.8143,-6.99214 2.5182,4e-5 4.5543,0.53583 6.1081,1.60739 1.5538,1.07163 2.9469,2.86654 4.1792,5.38475 2.0896,-2.57179 3.9917,-4.3667 5.7063,-5.38475 1.768,-1.07156 3.8041,-1.60735 6.108,-1.60739 3.3219,4e-5 5.9473,1.04484 7.8762,3.13441 1.9824,2.03606 2.9737,4.76862 2.9737,8.19769 l 0,20.17274 c 0,1.71455 0.2679,2.8933 0.8037,3.53626 0.5893,0.58938 1.6609,0.93764 3.2148,1.0448 l 0,1.92887 -19.1279,0 0,-1.92887 c 1.5537,-0.10716 2.5985,-0.48221 3.1344,-1.12517 0.5357,-0.64295 0.8036,-1.79492 0.8037,-3.45589 l 0,-19.44942 c -1e-4,-2.35747 -0.3484,-4.04523 -1.0448,-5.06328 -0.643,-1.07156 -1.7146,-1.60735 -3.2148,-1.60739 -1.3931,4e-5 -2.8934,0.64299 -4.5007,1.92887 -1.5539,1.23236 -2.3308,2.14322 -2.3307,2.73257 l 0,21.45865 c -1e-4,1.55381 0.2678,2.67899 0.8037,3.37552 0.5893,0.64296 1.5805,1.0448 2.9736,1.20554 l 0,1.92887 -18.8064,0 0,-1.92887 c 1.5002,-0.10716 2.5182,-0.48221 3.054,-1.12517 0.5358,-0.64295 0.8037,-1.79492 0.8037,-3.45589 l 0,-19.44942 c 0,-2.41105 -0.3483,-4.1256 -1.0448,-5.14364 -0.643,-1.01799 -1.7414,-1.52699 -3.2951,-1.52703" inkscape:connector-curvature="0"/>
        <path id="path5427" style="font-size:80.36949158px;font-variant:normal;font-weight:bold;font-stretch:normal;fill:#ffffff;font-family:FreeSerif;-inkscape-font-specification:FreeSerif Bold" d="m 3100.2778,-442.53379 c 0.053,1.44667 0.1607,2.75937 0.3214,3.93811 0.1608,1.12519 0.4287,2.43789 0.8037,3.9381 0.4287,1.44666 0.9644,2.65221 1.6074,3.61663 0.6965,0.96444 1.6074,1.79493 2.7326,2.49145 1.1787,0.69654 2.545,1.04481 4.0988,1.04481 1.7146,0 3.2684,-0.40184 4.6615,-1.20554 1.393,-0.80369 2.8932,-2.19676 4.5006,-4.17922 l 1.9289,1.12517 c -2.6254,3.75059 -5.0901,6.37599 -7.394,7.87621 -2.2503,1.44666 -5.0097,2.16998 -8.278,2.16998 -4.983,0 -9.0014,-1.76813 -12.0555,-5.30439 -3.0004,-3.58982 -4.5007,-8.30483 -4.5007,-14.14503 0,-5.89373 1.5271,-10.63553 4.5811,-14.2254 3.1076,-3.64338 7.1797,-5.46508 12.2162,-5.46512 9.1621,4e-5 14.1718,6.10811 15.0291,18.32424 l -20.2531,0 m 10.3676,-4.17921 c -0.054,-1.71452 -0.1072,-3.02722 -0.1607,-3.93811 -0.054,-0.91082 -0.1876,-1.92883 -0.4019,-3.05404 -0.2143,-1.17872 -0.509,-2.03599 -0.884,-2.57182 -0.3215,-0.58934 -0.8037,-1.07156 -1.4467,-1.44665 -0.5894,-0.4286 -1.3395,-0.64292 -2.2503,-0.64296 -1.9825,4e-5 -3.4024,0.93768 -4.2596,2.81294 -0.8037,1.87531 -1.2591,5.22404 -1.3663,10.04618 l 10.7695,0 0,-1.20554" inkscape:connector-curvature="0"/>
        <path id="path5429" style="font-size:80.36949158px;font-variant:normal;font-weight:bold;font-stretch:normal;fill:#ffffff;font-family:FreeSerif;-inkscape-font-specification:FreeSerif Bold" d="m 3144.3177,-455.47328 c -1.5002,4e-5 -3.0273,0.64299 -4.5811,1.92887 -1.5538,1.23236 -2.3307,2.14322 -2.3307,2.73257 l 0,21.45865 c 0,1.50023 0.2679,2.59862 0.8037,3.29515 0.5894,0.64296 1.6342,1.07159 3.1344,1.28591 l 0,1.92887 -19.369,0 0,-1.92887 c 1.8217,-0.37505 2.9737,-0.85727 3.4559,-1.44665 0.5358,-0.58937 0.8037,-1.71454 0.8037,-3.37552 l 0,-23.62863 c 0,-1.66094 -0.2679,-2.78611 -0.8037,-3.37552 -0.5358,-0.64292 -1.6878,-1.09835 -3.4559,-1.36628 l 0,-1.92887 15.3506,0 0,6.02771 c 2.9468,-4.66139 6.7778,-6.9921 11.4928,-6.99214 3.3219,4e-5 5.9473,1.04484 7.8762,3.13441 1.9824,2.03606 2.9736,4.76862 2.9737,8.19769 l 0,20.17274 c -10e-5,1.71455 0.2678,2.8933 0.8037,3.53626 0.5357,0.58938 1.5805,0.93764 3.1344,1.0448 l 0,1.92887 -18.8868,0 0,-1.92887 c 1.3394,-0.16074 2.3039,-0.58937 2.8933,-1.28591 0.5893,-0.69653 0.884,-1.79492 0.884,-3.29515 l 0,-19.44942 c 0,-4.44708 -1.3931,-6.67063 -4.1792,-6.67067" inkscape:connector-curvature="0"/>
        <path id="path5431" style="font-size:80.36949158px;font-variant:normal;font-weight:bold;font-stretch:normal;fill:#ffffff;font-family:FreeSerif;-inkscape-font-specification:FreeSerif Bold" d="m 3189.5369,-459.8936 0,3.53626 -7.5548,0 0,24.19122 c 0,1.60739 0.2411,2.78615 0.7234,3.53625 0.4822,0.69655 1.2859,1.04481 2.411,1.04481 1.6074,0 3.1344,-1.39307 4.5811,-4.17922 l 2.0092,0.88407 c -1.661,3.26836 -3.4023,5.59908 -5.224,6.99214 -1.7681,1.3395 -3.9917,2.00924 -6.6706,2.00924 -2.7862,0 -4.983,-0.75011 -6.5903,-2.25034 -1.6074,-1.50023 -2.4111,-3.56305 -2.4111,-6.18845 l 0,-26.03972 -4.1792,0 0,-2.16998 c 2.6254,-2.19672 4.8757,-4.3667 6.751,-6.50992 1.9289,-2.14315 4.1256,-4.95608 6.5903,-8.4388 l 2.0092,0 0,13.58244 7.5548,0" inkscape:connector-curvature="0"/>
      </g>
      <g id="text4957" style="font-size:132.81637573px;font-style:normal;font-weight:normal;line-height:125%;letter-spacing:0px;word-spacing:0px;fill:#2c89a0;fill-opacity:1;stroke:none;font-family:Sans" transform="matrix(0.36951312,0,0,0.49349701,-1054.0201,416.32246)">
        <path id="path5446" style="font-variant:normal;font-weight:bold;font-stretch:normal;text-align:start;line-height:125%;writing-mode:lr-tb;text-anchor:start;fill:#2c89a0;font-family:Bitstream Charter;-inkscape-font-specification:Bitstream Charter Bold" d="m 3054.2555,-526.57605 71.3224,0 0,-23.77413 -9.0315,0 -2.2579,14.07853 -1.7266,2.12507 -30.8134,0 0,-34.53226 17.2661,0 1.8594,1.85943 1.3282,9.56278 7.8362,0 0,-30.8134 -7.8362,0 -1.3282,9.56278 -1.8594,1.85943 -17.2661,0 0,-31.6103 26.4304,0 1.7266,1.72661 1.9923,11.68784 9.2971,0 0,-20.85217 -66.9394,0 0,6.508 8.1018,0.66409 2.125,1.85943 0,70.79112 -2.125,2.12507 -8.1018,0.66408 0,6.508" inkscape:connector-curvature="0"/>
        <path id="path5448" style="font-variant:normal;font-weight:bold;font-stretch:normal;text-align:start;line-height:125%;writing-mode:lr-tb;text-anchor:start;fill:#2c89a0;font-family:Bitstream Charter;-inkscape-font-specification:Bitstream Charter Bold" d="m 3223.6898,-585.01526 -77.6976,0 0,10.89095 77.6976,0 0,-10.89095 m 0,26.82891 -77.6976,0 0,10.75813 77.6976,0 0,-10.75813" inkscape:connector-curvature="0"/>
        <path id="path5450" style="font-variant:normal;font-weight:bold;font-stretch:normal;text-align:start;line-height:125%;writing-mode:lr-tb;text-anchor:start;fill:#2c89a0;font-family:Bitstream Charter;-inkscape-font-specification:Bitstream Charter Bold" d="m 3306.8307,-583.68709 c -3.586,-6.10955 -8.8987,-9.29715 -15.5395,-9.29715 -5.8439,0 -12.7504,3.05478 -21.7819,8.36743 l 0,-7.83616 -6.3751,0 -18.7272,6.24237 0,5.31265 8.6331,0 0,45.82165 -1.8594,1.99225 -6.7737,0.53126 0,5.97674 32.5401,0 0,-5.97674 -5.5783,-0.53126 -1.8595,-1.99225 0,-43.8294 c 4.2502,-1.5938 7.969,-2.3907 11.1566,-2.3907 8.5003,0 11.9535,4.38295 11.9535,13.68009 l 0,32.27438 -1.8594,2.25788 -5.4455,0.53126 0,5.97674 31.3446,0 0,-5.84392 -5.9767,-0.66408 -1.8594,-1.99225 0,-43.56377 c 4.3829,-1.59379 8.1018,-2.52351 11.4222,-2.52351 8.7659,0 12.2191,4.38295 12.2191,14.34417 l 0,31.74311 -1.8594,1.99225 -5.7111,0.53126 0,5.97674 32.6728,0 0,-5.97674 -7.0393,-0.53126 -1.7266,-1.99225 0,-35.59479 c 0,-14.7426 -6.1096,-22.04751 -18.4615,-22.04751 -4.9142,0 -12.8832,2.92196 -23.5085,9.03151" inkscape:connector-curvature="0"/>
        <path id="path5452" style="font-variant:normal;font-weight:bold;font-stretch:normal;text-align:start;line-height:125%;writing-mode:lr-tb;text-anchor:start;fill:#2c89a0;font-family:Bitstream Charter;-inkscape-font-specification:Bitstream Charter Bold" d="m 3420.4655,-532.55279 0,-9.42996 c -6.508,3.98449 -12.7504,5.97674 -18.4615,5.97674 -12.3519,0 -20.4537,-9.42998 -20.4537,-25.36793 0,-15.14105 8.1018,-24.70385 17.399,-24.70385 0.9297,0 1.9922,0.13282 3.3204,0.39845 l 0,14.07854 c 2.3907,1.72661 4.9142,2.52351 7.8361,2.52351 5.7111,0 9.5628,-3.85168 9.5628,-9.03151 0,-8.10179 -8.2346,-14.47699 -21.9147,-14.47699 -19.9224,0 -34.2666,14.21137 -34.2666,34.39944 0,19.25836 12.6176,32.67283 31.8759,32.67283 8.5003,0 16.6021,-2.3907 25.1023,-7.03927" inkscape:connector-curvature="0"/>
        <path id="path5454" style="font-size:86.33185577px;baseline-shift:super;fill:#2c89a0" d="m 3437.0694,-588.50845 c 19.1657,-13.0361 29.1802,-22.27363 29.1802,-33.32409 0,-10.01449 -7.3382,-16.83472 -18.9067,-16.83472 -12.4317,0 -20.288,6.04324 -20.288,13.20878 0,3.62593 2.4173,6.04323 6.2159,6.04323 1.7267,0 3.5397,-0.51799 5.4389,-1.55398 l 0,-11.13681 c 1.7267,-0.69065 3.4533,-1.03598 5.0073,-1.03598 6.5612,0 10.6188,4.40294 10.6188,12.08646 0,10.79147 -9.8418,20.37433 -28.0578,34.53274 l 0,6.82022 41.7846,0 0,-16.40305 -5.2663,0 -1.5539,7.5972 -24.173,0" inkscape:connector-curvature="0"/>
      </g>
      <g style="font-size:35.56732178px;font-style:normal;font-weight:normal;line-height:125%;letter-spacing:0px;word-spacing:0px;fill:#ffffff;fill-opacity:1;stroke:none;font-family:Sans" id="text3074">
        <path d="m 114.15122,49.277345 c 0,7.575832 4.87273,12.626399 12.23516,12.626399 2.98765,0 5.83304,-1.102589 8.00265,-3.129924 2.48971,-2.311874 3.8057,-5.512939 3.8057,-9.283071 0,-4.019103 -1.49383,-7.433573 -4.23251,-9.781013 -2.1696,-1.849499 -4.76602,-2.774252 -7.82481,-2.774252 -3.30776,0 -6.08201,1.031455 -8.32275,3.094357 -2.41858,2.240739 -3.66344,5.37067 -3.66344,9.247504 m 12.05732,-10.065552 c 3.87684,0 6.65109,3.80571 6.65109,10.385658 0,6.29541 -2.80982,10.136687 -6.72222,10.136687 -3.8057,0 -6.68666,-3.841278 -6.68666,-10.385658 0,-6.366544 2.80983,-10.136687 6.75779,-10.136687" style="font-variant:normal;font-weight:bold;font-stretch:normal;text-align:start;line-height:125%;writing-mode:lr-tb;text-anchor:start;fill:#ffffff;font-family:Bitstream Charter;-inkscape-font-specification:Bitstream Charter Bold" id="path3104" inkscape:connector-curvature="0"/>
        <path d="m 150.85503,37.468994 -10.38566,0 0,1.742799 2.16961,0.177837 0.56908,0.569077 0,18.886248 -0.56908,0.569077 -2.16961,0.177836 0,1.742799 10.38566,0 c 3.55673,0 6.22429,-0.533511 8.42946,-2.240741 2.88095,-2.205172 4.37478,-5.477372 4.37478,-9.674312 0,-7.46913 -4.55263,-11.95062 -12.80424,-11.95062 m -2.95209,1.99177 2.06291,0 c 5.6552,0 8.39389,3.236633 8.39389,9.923283 0,6.68665 -2.73869,9.95885 -8.39389,9.95885 l -2.06291,0 0,-19.882133" style="font-variant:normal;font-weight:bold;font-stretch:normal;text-align:start;line-height:125%;writing-mode:lr-tb;text-anchor:start;fill:#ffffff;font-family:Bitstream Charter;-inkscape-font-specification:Bitstream Charter Bold" id="path3106" inkscape:connector-curvature="0"/>
        <path d="m 165.99948,61.334667 10.49236,0 0,-1.742799 -2.48971,-0.177836 -0.60464,-0.569077 0,-8.287186 4.76602,0 0.49794,0.462375 0.35567,2.596414 2.09848,0 0,-8.287186 -2.09848,0 -0.35567,2.596415 -0.49794,0.462375 -4.76602,0 0,-8.856263 6.86449,0 0.46238,0.462375 0.53351,3.45003 2.45414,0 0,-5.97531 -17.8548,0 0,1.742799 2.27631,0.177837 0.56908,0.497942 0,18.957383 -0.56908,0.569077 -2.13404,0.177836 0,1.742799" style="font-variant:normal;font-weight:bold;font-stretch:normal;text-align:start;line-height:125%;writing-mode:lr-tb;text-anchor:start;fill:#ffffff;font-family:Bitstream Charter;-inkscape-font-specification:Bitstream Charter Bold" id="path3108" inkscape:connector-curvature="0"/>
      </g>
    </g>
  </g>
  <metadata>
    <rdf:RDF>
      <cc:Work>
        <dc:format>image/svg+xml</dc:format>
        <dc:type rdf:resource="http://purl.org/dc/dcmitype/StillImage"/>
        <cc:license rdf:resource="http://creativecommons.org/licenses/publicdomain/"/>
        <dc:publisher>
          <cc:Agent rdf:about="http://openclipart.org/">
            <dc:title>Open Clip Art Library</dc:title>
          </cc:Agent>
        </dc:publisher>
        <dc:title>Equation Icon</dc:title>
        <dc:date>2011-05-15T06:03:06</dc:date>
        <dc:description>Equation Icon</dc:description>
        <dc:source>http://openclipart.org/detail/138775/equation-icon-by-gsagri04</dc:source>
        <dc:creator>
          <cc:Agent>
            <dc:title>gsagri04</dc:title>
          </cc:Agent>
        </dc:creator>
        <dc:subject>
          <rdf:Bag>
            <rdf:li>Equation</rdf:li>
            <rdf:li>clip art</rdf:li>
            <rdf:li>clip_art</rdf:li>
            <rdf:li>clipart</rdf:li>
            <rdf:li>formula</rdf:li>
            <rdf:li>icon</rdf:li>
            <rdf:li>maths</rdf:li>
            <rdf:li>png</rdf:li>
            <rdf:li>svg</rdf:li>
            <rdf:li>web</rdf:li>
          </rdf:Bag>
        </dc:subject>
      </cc:Work>
      <cc:License rdf:about="http://creativecommons.org/licenses/publicdomain/">
        <cc:permits rdf:resource="http://creativecommons.org/ns#Reproduction"/>
        <cc:permits rdf:resource="http://creativecommons.org/ns#Distribution"/>
        <cc:permits rdf:resource="http://creativecommons.org/ns#DerivativeWorks"/>
      </cc:License>
    </rdf:RDF>
  </metadata>
</svg>
